<svg width="18" height="18" viewBox="0 0 18 18" fill="none" xmlns="http://www.w3.org/2000/svg">
<path d="M12.7289 4.68819C12.5567 4.59238 12.3673 4.53145 12.1716 4.50889C11.9758 4.48632 11.7775 4.50257 11.5881 4.55669C11.3986 4.61081 11.2217 4.70175 11.0674 4.82431C10.9131 4.94687 10.7845 5.09864 10.6889 5.27094L7.90413 10.2824L6.31038 8.68869C6.17201 8.54543 6.00649 8.43115 5.82348 8.35254C5.64048 8.27392 5.44365 8.23255 5.24448 8.23081C5.04531 8.22908 4.84779 8.26704 4.66345 8.34246C4.4791 8.41788 4.31162 8.52926 4.17079 8.6701C4.02995 8.81094 3.91857 8.97842 3.84315 9.16276C3.76772 9.3471 3.72977 9.54462 3.7315 9.74379C3.73323 9.94296 3.77461 10.1398 3.85323 10.3228C3.93184 10.5058 4.04611 10.6713 4.18938 10.8097L7.18938 13.8097C7.47288 14.0939 7.85538 14.2499 8.24988 14.2499L8.45763 14.2349C8.68754 14.2028 8.90685 14.1177 9.09829 13.9864C9.28974 13.8551 9.44809 13.6811 9.56088 13.4782L13.3109 6.72819C13.4066 6.55603 13.4675 6.3667 13.4901 6.171C13.5126 5.97531 13.4964 5.77708 13.4424 5.58765C13.3884 5.39821 13.2975 5.22128 13.1751 5.06695C13.0527 4.91262 12.901 4.78392 12.7289 4.68819Z" fill="white"/>
</svg>
