<svg width="28" height="28" viewBox="0 0 28 28" fill="none" xmlns="http://www.w3.org/2000/svg">
<path d="M4.375 12.2502C4.14294 12.2502 3.92038 12.158 3.75628 11.9939C3.59219 11.8298 3.5 11.6073 3.5 11.3752V4.37695C3.5 4.14489 3.59219 3.92233 3.75628 3.75823C3.92038 3.59414 4.14294 3.50195 4.375 3.50195H11.375C11.6071 3.50195 11.8296 3.59414 11.9937 3.75823C12.1578 3.92233 12.25 4.14489 12.25 4.37695V11.3752C12.25 11.6073 12.1578 11.8298 11.9937 11.9939C11.8296 12.158 11.6071 12.2502 11.375 12.2502H4.375ZM16.625 12.2502C16.3929 12.2502 16.1704 12.158 16.0063 11.9939C15.8422 11.8298 15.75 11.6073 15.75 11.3752V4.37695C15.75 4.14489 15.8422 3.92233 16.0063 3.75823C16.1704 3.59414 16.3929 3.50195 16.625 3.50195H23.6232C23.8553 3.50195 24.0779 3.59414 24.242 3.75823C24.4061 3.92233 24.4982 4.14489 24.4982 4.37695V11.3752C24.4982 11.6073 24.4061 11.8298 24.242 11.9939C24.0779 12.158 23.8553 12.2502 23.6232 12.2502H16.625ZM4.375 24.5002C4.14294 24.5002 3.92038 24.408 3.75628 24.2439C3.59219 24.0798 3.5 23.8573 3.5 23.6252V16.6252C3.5 16.3931 3.59219 16.1706 3.75628 16.0065C3.92038 15.8424 4.14294 15.7502 4.375 15.7502H11.375C11.6071 15.7502 11.8296 15.8424 11.9937 16.0065C12.1578 16.1706 12.25 16.3931 12.25 16.6252V23.6252C12.25 23.8573 12.1578 24.0798 11.9937 24.2439C11.8296 24.408 11.6071 24.5002 11.375 24.5002H4.375ZM16.625 24.5002C16.3929 24.5002 16.1704 24.408 16.0063 24.2439C15.8422 24.0798 15.75 23.8573 15.75 23.6252V16.6252C15.75 16.3931 15.8422 16.1706 16.0063 16.0065C16.1704 15.8424 16.3929 15.7502 16.625 15.7502H23.6232C23.8553 15.7502 24.0779 15.8424 24.242 16.0065C24.4061 16.1706 24.4982 16.3931 24.4982 16.6252V23.6252C24.4982 23.8573 24.4061 24.0798 24.242 24.2439C24.0779 24.408 23.8553 24.5002 23.6232 24.5002H16.625Z" fill="#0749B0"/>
</svg>
