<svg width="28" height="28" viewBox="0 0 28 28" fill="none" xmlns="http://www.w3.org/2000/svg">
<path d="M14 17.5C15.933 17.5 17.5 15.933 17.5 14C17.5 12.067 15.933 10.5 14 10.5C12.067 10.5 10.5 12.067 10.5 14C10.5 15.933 12.067 17.5 14 17.5Z" fill="#0749B0"/>
<path d="M27.0725 13.7025C26.0434 11.0404 24.2567 8.73829 21.9334 7.08057C19.6102 5.42286 16.852 4.48225 14 4.375C11.1479 4.48225 8.38983 5.42286 6.06655 7.08057C3.74326 8.73829 1.95663 11.0404 0.927494 13.7025C0.85799 13.8947 0.85799 14.1053 0.927494 14.2975C1.95663 16.9596 3.74326 19.2617 6.06655 20.9194C8.38983 22.5771 11.1479 23.5177 14 23.625C16.852 23.5177 19.6102 22.5771 21.9334 20.9194C24.2567 19.2617 26.0434 16.9596 27.0725 14.2975C27.142 14.1053 27.142 13.8947 27.0725 13.7025ZM14 19.6875C12.8751 19.6875 11.7755 19.3539 10.8402 18.729C9.90488 18.104 9.1759 17.2158 8.74543 16.1765C8.31496 15.1373 8.20232 13.9937 8.42178 12.8904C8.64123 11.7872 9.18291 10.7737 9.97832 9.97833C10.7737 9.18292 11.7872 8.64124 12.8904 8.42178C13.9937 8.20233 15.1373 8.31496 16.1765 8.74544C17.2158 9.17591 18.104 9.90489 18.729 10.8402C19.3539 11.7755 19.6875 12.8751 19.6875 14C19.6852 15.5077 19.0852 16.953 18.0191 18.0191C16.953 19.0852 15.5077 19.6852 14 19.6875Z" fill="#0749B0"/>
</svg>
