<?xml version="1.0" standalone="no"?>
<!DOCTYPE svg PUBLIC "-//W3C//DTD SVG 20010904//EN"
 "http://www.w3.org/TR/2001/REC-SVG-20010904/DTD/svg10.dtd">
<svg version="1.0" xmlns="http://www.w3.org/2000/svg"
 width="280.000000pt" height="280.000000pt" viewBox="0 0 280.000000 280.000000"
 preserveAspectRatio="xMidYMid meet">
<metadata>
Created by potrace 1.14, written by Peter Selinger 2001-2017
</metadata>
<g transform="translate(0.000000,280.000000) scale(0.100000,-0.100000)"
fill="#000000" stroke="none">
<path d="M1732 2502 c399 -200 673 -496 760 -820 28 -104 30 -288 4 -387 -107
-409 -516 -708 -1111 -812 -145 -25 -555 -25 -714 0 -198 31 -368 79 -576 162
-14 6 -17 5 -10 -3 18 -20 250 -120 372 -161 216 -71 425 -108 673 -117 525
-21 1011 138 1301 426 187 185 270 371 271 605 2 456 -368 884 -977 1129 -129
52 -126 44 7 -22z"/>
<path d="M1080 2262 l-695 -2 110 -110 110 -110 620 0 620 0 -3 -557 c-1 -307
0 -568 3 -581 l6 -23 46 33 c25 18 74 62 109 98 l64 65 0 453 0 453 -55 68
c-53 66 -136 143 -205 192 l-35 24 -695 -3z"/>
<path d="M772 1660 l-212 -5 130 -130 130 -130 191 4 190 3 -2 -192 -2 -192
129 -129 129 -129 6 157 c4 87 7 292 8 456 l1 297 -242 -2 c-134 -1 -339 -5
-456 -8z"/>
<path d="M470 1201 l-75 -6 -3 -252 -2 -252 37 -10 c97 -26 244 -43 411 -48
102 -3 187 -2 192 3 5 5 10 44 11 87 l4 78 -220 2 -220 2 -3 203 -2 202 -28
-2 c-15 -1 -61 -4 -102 -7z"/>
</g>
</svg>
